# xmcd
#
# Track frame offsets:
#	150
#	6671
#	18461
#	34435
#	44295
#	51565
#	61237
#	72449
#	80669
#	91519
#	101585
#	110403
#	125639
#	132409
#	139479
#	149397
#	155457
#	171191
#	187947
#
# Disc length: 2726 seconds
#
# Revision: 1
# Processed by: cddbd v1.5.1PL0 Copyright (c) Steve Scherf et al.
# Submitted via: CDex 1.50Beta5
#
DISCID=1a0aa413
DTITLE=Various Artist - A Gift For You Diney Christmas
DYEAR=1900
DGENRE=Music
TTITLE0=We Wish You A Merry Christmas
TTITLE1=White Christmas
TTITLE2=赤鼻のトナカイ
TTITLE3=Frosty The Snowman
TTITLE4=Santa Claus Is Coming To Town
TTITLE5=Sleigh Ride
TTITLE6=Jingle Bells
TTITLE7=Winter Wonderland
TTITLE8=あわてんぼうのサンタクロース
TTITLE9=Let It Snow
TTITLE10=The First Noel
TTITLE11=Little Drummer Boy
TTITLE12=Oh Come All Ye Faithful
TTITLE13=Carol Of The Bells
TTITLE14=Joy To The World
TTITLE15=Deck The Halls
TTITLE16=Do You Hear What I Hear
TTITLE17=Silent Night
TTITLE18=The Twelve Days Of Christmas
EXTD=
EXTT0=
EXTT1=
EXTT2=
EXTT3=
EXTT4=
EXTT5=
EXTT6=
EXTT7=
EXTT8=
EXTT9=
EXTT10=
EXTT11=
EXTT12=
EXTT13=
EXTT14=
EXTT15=
EXTT16=
EXTT17=
EXTT18=
PLAYORDER=
